<svg width="11" height="9" viewBox="0 0 11 9" fill="none" xmlns="http://www.w3.org/2000/svg">
<path d="M4.97026 7.89154C5.01995 7.96372 5.08644 8.02273 5.16401 8.06349C5.24157 8.10426 5.32788 8.12556 5.41551 8.12556C5.50313 8.12556 5.58945 8.10426 5.66701 8.06349C5.74457 8.02273 5.81107 7.96372 5.86076 7.89154L10.7358 0.849876C10.7922 0.768656 10.8253 0.673526 10.8314 0.57482C10.8376 0.476114 10.8166 0.377609 10.7707 0.290005C10.7248 0.202402 10.6558 0.129051 10.5711 0.0779232C10.4865 0.0267952 10.3894 -0.000155103 10.2905 6.71479e-07H0.540508C0.44184 0.000408227 0.34515 0.0277051 0.260835 0.0789556C0.176521 0.130206 0.107772 0.203471 0.0619831 0.290872C0.0161938 0.378273 -0.0049038 0.476502 0.000959182 0.574997C0.00682216 0.673491 0.0394239 0.768524 0.0952583 0.849876L4.97026 7.89154Z" fill="#3F4A52"/>
</svg>
