<svg width="11" height="9" viewBox="0 0 11 9" fill="none" xmlns="http://www.w3.org/2000/svg">
<path d="M5.86223 0.234067C5.81254 0.161895 5.74605 0.102884 5.66848 0.0621166C5.59092 0.0213499 5.50461 4.95911e-05 5.41698 4.95911e-05C5.32936 4.95911e-05 5.24304 0.0213499 5.16548 0.0621166C5.08791 0.102884 5.02142 0.161895 4.97173 0.234067L0.0967302 7.27573C0.0403013 7.35695 0.00721169 7.45208 0.00105286 7.55079C-0.00510502 7.6495 0.0159044 7.748 0.0618 7.83561C0.107696 7.92321 0.176722 7.99656 0.261377 8.04769C0.346033 8.09882 0.443083 8.12577 0.54198 8.12561L10.292 8.12561C10.3906 8.1252 10.4873 8.09791 10.5717 8.04665C10.656 7.9954 10.7247 7.92214 10.7705 7.83474C10.8163 7.74734 10.8374 7.64911 10.8315 7.55061C10.8257 7.45212 10.7931 7.35709 10.7372 7.27573L5.86223 0.234067Z" fill="#3F4A52"/>
</svg>
